<?xml version="1.0" encoding="UTF-8"?>
<svg xmlns="http://www.w3.org/2000/svg" xmlns:xlink="http://www.w3.org/1999/xlink" width="160px" height="60px" viewBox="0 0 160 60" version="1.1">
<g id="surface1">
<path style=" stroke:none;fill-rule:nonzero;fill:rgb(98.823529%,84.313726%,93.333334%);fill-opacity:1;" d="M 0 0 C 52.800781 0 105.601562 0 160 0 C 160 19.800781 160 39.601562 160 60 C 107.199219 60 54.398438 60 0 60 C 0 40.199219 0 20.398438 0 0 Z M 0 0 "/>
<path style=" stroke:none;fill-rule:nonzero;fill:rgb(46.27451%,27.058825%,65.882355%);fill-opacity:1;" d="M 32.046875 24.195312 C 40.300781 24.195312 48.554688 24.195312 57.054688 24.195312 C 56.894531 25.027344 56.707031 25.769531 56.328125 26.570312 C 56.28125 26.671875 56.234375 26.773438 56.1875 26.878906 C 56.039062 27.203125 55.886719 27.527344 55.734375 27.847656 C 55.539062 28.273438 55.339844 28.699219 55.144531 29.125 C 55.074219 29.277344 55.074219 29.277344 55.003906 29.433594 C 54.703125 30.09375 54.441406 30.753906 54.234375 31.429688 C 54.144531 31.660156 54.144531 31.660156 53.898438 31.796875 C 53.308594 31.808594 52.726562 31.816406 52.132812 31.8125 C 51.855469 31.8125 51.855469 31.8125 51.574219 31.8125 C 50.960938 31.8125 50.347656 31.8125 49.734375 31.8125 C 49.308594 31.808594 48.886719 31.808594 48.460938 31.808594 C 47.34375 31.808594 46.222656 31.808594 45.105469 31.808594 C 43.964844 31.804688 42.824219 31.804688 41.683594 31.804688 C 39.441406 31.800781 37.203125 31.800781 34.960938 31.796875 C 34.574219 31.152344 34.277344 30.507812 34.019531 29.839844 C 33.960938 29.683594 33.960938 29.683594 33.894531 29.519531 C 33.765625 29.179688 33.636719 28.84375 33.503906 28.503906 C 33.417969 28.28125 33.332031 28.054688 33.242188 27.828125 C 33.042969 27.316406 32.847656 26.800781 32.648438 26.289062 C 32.566406 26.078125 32.484375 25.867188 32.398438 25.660156 C 32.351562 25.550781 32.308594 25.441406 32.261719 25.328125 C 32.222656 25.230469 32.179688 25.132812 32.140625 25.03125 C 32.046875 24.746094 32.046875 24.746094 32.046875 24.195312 Z M 32.046875 24.195312 "/>
<path style=" stroke:none;fill-rule:nonzero;fill:rgb(33.725491%,8.627451%,38.431373%);fill-opacity:1;" d="M 97.84375 19.492188 C 99.082031 19.484375 100.320312 19.480469 101.558594 19.476562 C 101.980469 19.476562 102.398438 19.476562 102.816406 19.472656 C 105.007812 19.460938 107.175781 19.472656 109.355469 19.613281 C 109.519531 19.625 109.6875 19.636719 109.859375 19.644531 C 112.089844 19.808594 113.5625 20.3125 114.992188 21.28125 C 116.054688 22.1875 115.972656 23.136719 115.8125 24.195312 C 115.480469 25.035156 114.890625 25.707031 113.671875 26.234375 C 111.242188 27.023438 108.585938 27.121094 105.855469 27.105469 C 105.46875 27.105469 105.078125 27.101562 104.6875 27.101562 C 104.347656 27.097656 104.011719 27.097656 103.671875 27.097656 C 103.6875 27.808594 103.710938 28.523438 103.734375 29.238281 C 103.742188 29.480469 103.75 29.722656 103.757812 29.964844 C 103.765625 30.3125 103.777344 30.664062 103.789062 31.011719 C 103.792969 31.121094 103.792969 31.226562 103.796875 31.339844 C 103.828125 32.003906 104.007812 32.464844 104.644531 33.042969 C 104.960938 33.183594 105.28125 33.324219 105.613281 33.457031 C 105.613281 33.546875 105.613281 33.640625 105.613281 33.734375 C 103.128906 33.734375 100.648438 33.734375 98.089844 33.734375 C 98.089844 33.640625 98.089844 33.550781 98.089844 33.457031 C 98.320312 33.375 98.546875 33.289062 98.785156 33.207031 C 99.632812 32.867188 99.753906 32.761719 100.03125 32.210938 C 100.078125 31.839844 100.101562 31.480469 100.101562 31.105469 C 100.101562 30.996094 100.105469 30.886719 100.105469 30.773438 C 100.109375 30.414062 100.113281 30.054688 100.113281 29.695312 C 100.113281 29.441406 100.113281 29.191406 100.117188 28.941406 C 100.121094 28.414062 100.121094 27.886719 100.121094 27.363281 C 100.121094 26.6875 100.125 26.015625 100.136719 25.34375 C 100.140625 24.824219 100.140625 24.304688 100.140625 23.785156 C 100.140625 23.539062 100.144531 23.289062 100.148438 23.042969 C 100.152344 22.695312 100.152344 22.347656 100.148438 22 C 100.152344 21.898438 100.152344 21.796875 100.15625 21.691406 C 100.140625 20.988281 99.84375 20.585938 99.058594 20.046875 C 98.425781 19.851562 98.425781 19.851562 97.84375 19.769531 C 97.84375 19.679688 97.84375 19.585938 97.84375 19.492188 Z M 97.84375 19.492188 "/>
<path style=" stroke:none;fill-rule:nonzero;fill:rgb(34.509805%,9.803922%,39.215687%);fill-opacity:1;" d="M 65.554688 19.492188 C 71.074219 19.1875 71.074219 19.1875 72.671875 19.660156 C 73.5625 20.082031 74.164062 20.609375 74.75 21.175781 C 75.152344 21.550781 75.644531 21.871094 76.144531 22.207031 C 76.402344 22.386719 76.402344 22.386719 76.664062 22.570312 C 77.644531 23.253906 78.640625 23.929688 79.636719 24.609375 C 80.550781 24.398438 80.992188 24.105469 81.59375 23.667969 C 81.785156 23.53125 81.972656 23.394531 82.171875 23.253906 C 82.320312 23.144531 82.320312 23.144531 82.476562 23.035156 C 83.125 22.578125 83.792969 22.128906 84.476562 21.6875 C 85.039062 21.320312 85.488281 20.988281 85.914062 20.5625 C 86.441406 20.0625 86.773438 19.800781 87.648438 19.492188 C 89.566406 19.308594 91.542969 19.398438 93.476562 19.492188 C 93.476562 19.585938 93.476562 19.675781 93.476562 19.769531 C 92.992188 19.957031 92.503906 20.140625 92.019531 20.324219 C 91.410156 20.84375 91.464844 21.25 91.46875 21.851562 C 91.46875 21.964844 91.46875 22.078125 91.46875 22.195312 C 91.464844 22.570312 91.464844 22.949219 91.46875 23.324219 C 91.46875 23.585938 91.46875 23.847656 91.464844 24.109375 C 91.464844 24.65625 91.46875 25.203125 91.46875 25.75 C 91.472656 26.453125 91.46875 27.15625 91.46875 27.855469 C 91.464844 28.394531 91.464844 28.9375 91.46875 29.476562 C 91.46875 29.734375 91.46875 29.992188 91.464844 30.25 C 91.464844 30.613281 91.46875 30.976562 91.46875 31.335938 C 91.46875 31.445312 91.46875 31.550781 91.46875 31.660156 C 91.472656 32.222656 91.523438 32.6875 92.019531 33.179688 C 92.753906 33.371094 92.753906 33.371094 93.476562 33.457031 C 93.476562 33.546875 93.476562 33.640625 93.476562 33.734375 C 90.832031 33.734375 88.1875 33.734375 85.460938 33.734375 C 85.460938 33.640625 85.460938 33.550781 85.460938 33.457031 C 85.691406 33.398438 85.921875 33.34375 86.160156 33.285156 C 86.980469 33.023438 87.109375 32.972656 87.40625 32.488281 C 87.457031 32.125 87.480469 31.773438 87.484375 31.410156 C 87.484375 31.300781 87.488281 31.195312 87.488281 31.082031 C 87.496094 30.726562 87.5 30.371094 87.503906 30.015625 C 87.511719 29.769531 87.515625 29.519531 87.519531 29.273438 C 87.53125 28.625 87.542969 27.972656 87.550781 27.324219 C 87.5625 26.660156 87.574219 25.996094 87.585938 25.332031 C 87.609375 24.03125 87.628906 22.730469 87.648438 21.429688 C 85.878906 22.433594 84.253906 23.488281 82.683594 24.59375 C 81.460938 25.445312 80.175781 26.269531 78.90625 27.097656 C 77.882812 26.835938 77.289062 26.433594 76.585938 25.949219 C 76.457031 25.863281 76.332031 25.773438 76.199219 25.6875 C 75.9375 25.507812 75.671875 25.328125 75.410156 25.148438 C 75.046875 24.902344 74.683594 24.65625 74.316406 24.410156 C 73.050781 23.566406 71.804688 22.710938 70.574219 21.851562 C 70.207031 21.585938 70.207031 21.585938 69.925781 21.429688 C 69.90625 22.859375 69.894531 24.289062 69.886719 25.71875 C 69.882812 26.382812 69.878906 27.046875 69.871094 27.710938 C 69.859375 28.351562 69.855469 28.992188 69.855469 29.632812 C 69.855469 29.878906 69.851562 30.121094 69.847656 30.367188 C 69.84375 30.710938 69.839844 31.050781 69.839844 31.394531 C 69.839844 31.496094 69.835938 31.597656 69.832031 31.699219 C 69.839844 32.308594 69.984375 32.699219 70.652344 33.179688 C 71.277344 33.367188 71.277344 33.367188 71.867188 33.457031 C 71.867188 33.546875 71.867188 33.640625 71.867188 33.734375 C 69.785156 33.734375 67.699219 33.734375 65.554688 33.734375 C 65.554688 33.640625 65.554688 33.550781 65.554688 33.457031 C 65.785156 33.398438 66.015625 33.34375 66.25 33.285156 C 67.074219 33.019531 67.203125 32.976562 67.496094 32.488281 C 67.546875 32.101562 67.566406 31.730469 67.566406 31.34375 C 67.570312 31.226562 67.570312 31.113281 67.570312 30.992188 C 67.578125 30.613281 67.578125 30.234375 67.578125 29.851562 C 67.578125 29.589844 67.582031 29.324219 67.582031 29.058594 C 67.585938 28.503906 67.585938 27.953125 67.585938 27.398438 C 67.585938 26.6875 67.59375 25.976562 67.601562 25.265625 C 67.605469 24.71875 67.609375 24.175781 67.605469 23.628906 C 67.609375 23.367188 67.609375 23.105469 67.613281 22.84375 C 67.617188 22.476562 67.617188 22.109375 67.613281 21.746094 C 67.617188 21.636719 67.621094 21.527344 67.621094 21.417969 C 67.613281 20.925781 67.570312 20.65625 67.039062 20.261719 C 66.558594 20.058594 66.101562 19.902344 65.554688 19.769531 C 65.554688 19.679688 65.554688 19.585938 65.554688 19.492188 Z M 65.554688 19.492188 "/>
<path style=" stroke:none;fill-rule:nonzero;fill:rgb(33.333334%,8.627451%,38.431373%);fill-opacity:1;" d="M 120.183594 19.492188 C 122.746094 19.492188 125.308594 19.492188 127.953125 19.492188 C 127.953125 19.585938 127.953125 19.675781 127.953125 19.769531 C 127.722656 19.855469 127.492188 19.941406 127.253906 20.027344 C 126.390625 20.363281 126.390625 20.363281 126.007812 20.875 C 125.960938 21.242188 125.941406 21.597656 125.941406 21.964844 C 125.941406 22.074219 125.941406 22.183594 125.9375 22.296875 C 125.933594 22.65625 125.933594 23.019531 125.9375 23.378906 C 125.933594 23.632812 125.933594 23.882812 125.933594 24.132812 C 125.929688 24.660156 125.929688 25.1875 125.933594 25.714844 C 125.933594 26.390625 125.929688 27.0625 125.925781 27.738281 C 125.921875 28.257812 125.921875 28.777344 125.921875 29.296875 C 125.921875 29.542969 125.917969 29.792969 125.917969 30.042969 C 125.914062 30.390625 125.914062 30.738281 125.917969 31.085938 C 125.917969 31.1875 125.914062 31.289062 125.914062 31.394531 C 125.925781 32.042969 126.128906 32.492188 126.738281 33.042969 C 127.363281 33.28125 127.363281 33.28125 127.953125 33.457031 C 127.953125 33.546875 127.953125 33.640625 127.953125 33.734375 C 125.308594 33.734375 122.664062 33.734375 119.9375 33.734375 C 119.9375 33.640625 119.9375 33.550781 119.9375 33.457031 C 120.277344 33.375 120.277344 33.375 120.621094 33.292969 C 121.5 33.007812 121.710938 32.863281 122.125 32.351562 C 122.195312 31.964844 122.222656 31.613281 122.21875 31.230469 C 122.21875 31.117188 122.222656 31.007812 122.222656 30.894531 C 122.226562 30.527344 122.222656 30.164062 122.222656 29.796875 C 122.222656 29.542969 122.222656 29.289062 122.222656 29.03125 C 122.222656 28.5 122.222656 27.964844 122.21875 27.433594 C 122.214844 26.75 122.21875 26.066406 122.222656 25.386719 C 122.226562 24.859375 122.222656 24.332031 122.222656 23.808594 C 122.222656 23.554688 122.222656 23.304688 122.222656 23.050781 C 122.226562 22.699219 122.222656 22.347656 122.21875 21.996094 C 122.21875 21.894531 122.222656 21.789062 122.222656 21.683594 C 122.210938 21.066406 122.066406 20.671875 121.394531 20.183594 C 120.996094 20.042969 120.59375 19.902344 120.183594 19.769531 C 120.183594 19.679688 120.183594 19.585938 120.183594 19.492188 Z M 120.183594 19.492188 "/>
<path style=" stroke:none;fill-rule:nonzero;fill:rgb(97.254902%,83.529413%,92.54902%);fill-opacity:1;" d="M 106.238281 20.554688 C 106.449219 20.550781 106.664062 20.546875 106.886719 20.542969 C 108.527344 20.535156 109.863281 20.703125 111.09375 21.351562 C 112.207031 22.066406 112.257812 22.734375 112.234375 23.65625 C 112.117188 24.378906 111.800781 24.996094 110.824219 25.488281 C 109.421875 26.066406 108.171875 26.078125 106.480469 26.042969 C 106.234375 26.039062 105.992188 26.039062 105.738281 26.035156 C 103.960938 26.015625 103.960938 26.015625 103.671875 25.851562 C 103.648438 25.476562 103.636719 25.101562 103.640625 24.726562 C 103.640625 24.613281 103.640625 24.5 103.640625 24.382812 C 103.640625 24.144531 103.640625 23.902344 103.640625 23.664062 C 103.640625 23.296875 103.640625 22.929688 103.640625 22.5625 C 103.640625 22.328125 103.640625 22.097656 103.640625 21.863281 C 103.640625 21.753906 103.640625 21.644531 103.636719 21.53125 C 103.648438 20.351562 104.410156 20.566406 106.238281 20.554688 Z M 106.238281 20.554688 "/>
<path style=" stroke:none;fill-rule:nonzero;fill:rgb(52.156866%,33.333334%,69.01961%);fill-opacity:1;" d="M 34.71875 32.210938 C 41.128906 32.210938 47.539062 32.210938 54.144531 32.210938 C 54.144531 32.484375 54.144531 32.757812 54.144531 33.042969 C 53.5 33.085938 52.859375 33.132812 52.199219 33.179688 C 52.441406 33.28125 52.441406 33.28125 52.6875 33.386719 C 53.28125 33.808594 53.316406 34.046875 53.261719 34.574219 C 53.171875 34.839844 53.171875 34.839844 52.808594 35.175781 C 51.972656 35.472656 51.242188 35.59375 50.257812 35.53125 C 49.519531 35.257812 49.132812 35.066406 48.9375 34.566406 C 48.90625 34.277344 48.90625 34.277344 49.042969 33.734375 C 49.363281 33.550781 49.683594 33.367188 50.015625 33.179688 C 46.25 33.179688 42.484375 33.179688 38.605469 33.179688 C 39.003906 33.40625 39.40625 33.636719 39.816406 33.871094 C 40.007812 34.480469 39.945312 34.730469 39.332031 35.246094 C 38.523438 35.5625 38.09375 35.632812 37.132812 35.597656 C 36.292969 35.476562 35.929688 35.234375 35.449219 34.839844 C 35.296875 34.433594 35.296875 34.433594 35.449219 34.007812 C 35.808594 33.695312 36.203125 33.453125 36.660156 33.179688 C 36.019531 33.132812 35.378906 33.089844 34.71875 33.042969 C 34.71875 32.769531 34.71875 32.492188 34.71875 32.210938 Z M 34.71875 32.210938 "/>
<path style=" stroke:none;fill-rule:nonzero;fill:rgb(41.176471%,21.568628%,63.529414%);fill-opacity:1;" d="M 34.960938 32.351562 C 41.210938 32.351562 47.460938 32.351562 53.898438 32.351562 C 53.898438 32.53125 53.898438 32.714844 53.898438 32.902344 C 47.648438 32.902344 41.402344 32.902344 34.960938 32.902344 C 34.960938 32.722656 34.960938 32.539062 34.960938 32.351562 Z M 34.960938 32.351562 "/>
<path style=" stroke:none;fill-rule:nonzero;fill:rgb(43.529412%,24.313726%,64.705884%);fill-opacity:1;" d="M 52.199219 33.179688 C 52.824219 33.386719 52.824219 33.386719 53.171875 33.734375 C 53.359375 34.285156 53.328125 34.691406 52.808594 35.175781 C 51.972656 35.472656 51.242188 35.59375 50.257812 35.53125 C 49.519531 35.257812 49.132812 35.066406 48.9375 34.566406 C 48.890625 34.109375 48.992188 33.785156 49.394531 33.386719 C 50.320312 33.078125 51.152344 33.074219 52.199219 33.179688 Z M 52.199219 33.179688 "/>
<path style=" stroke:none;fill-rule:nonzero;fill:rgb(94.901961%,80.000001%,91.37255%);fill-opacity:1;" d="M 50.5 29.445312 C 51.542969 29.445312 52.582031 29.445312 53.65625 29.445312 C 53.203125 30.949219 53.203125 30.949219 52.929688 31.105469 C 52.039062 31.125 51.148438 31.113281 50.257812 31.105469 C 50.339844 30.558594 50.417969 30.011719 50.5 29.445312 Z M 50.5 29.445312 "/>
<path style=" stroke:none;fill-rule:nonzero;fill:rgb(97.647059%,81.960785%,92.54902%);fill-opacity:1;" d="M 33.503906 25.023438 C 34.707031 25.023438 35.910156 25.023438 37.148438 25.023438 C 37.308594 25.480469 37.46875 25.933594 37.632812 26.40625 C 36.429688 26.40625 35.230469 26.40625 33.992188 26.40625 C 33.832031 25.949219 33.671875 25.492188 33.503906 25.023438 Z M 33.503906 25.023438 "/>
<path style=" stroke:none;fill-rule:nonzero;fill:rgb(97.647059%,82.352942%,92.54902%);fill-opacity:1;" d="M 42.972656 25.023438 C 44.015625 25.023438 45.058594 25.023438 46.128906 25.023438 C 46.128906 25.523438 46.128906 26.027344 46.128906 26.542969 C 45.089844 26.542969 44.046875 26.542969 42.972656 26.542969 C 42.972656 26.042969 42.972656 25.539062 42.972656 25.023438 Z M 42.972656 25.023438 "/>
<path style=" stroke:none;fill-rule:nonzero;fill:rgb(98.431373%,83.529413%,92.941177%);fill-opacity:1;" d="M 51.957031 25.023438 C 53.160156 25.023438 54.359375 25.023438 55.597656 25.023438 C 55.144531 26.25 55.144531 26.25 54.871094 26.40625 C 54.300781 26.414062 53.726562 26.417969 53.15625 26.414062 C 52.84375 26.414062 52.53125 26.410156 52.207031 26.410156 C 51.964844 26.410156 51.722656 26.40625 51.472656 26.40625 C 51.632812 25.949219 51.792969 25.492188 51.957031 25.023438 Z M 51.957031 25.023438 "/>
<path style=" stroke:none;fill-rule:nonzero;fill:rgb(98.039216%,83.137256%,92.941177%);fill-opacity:1;" d="M 38.359375 25.023438 C 39.484375 25.023438 40.605469 25.023438 41.761719 25.023438 C 41.761719 25.480469 41.761719 25.933594 41.761719 26.40625 C 40.71875 26.40625 39.675781 26.40625 38.605469 26.40625 C 38.523438 25.949219 38.445312 25.492188 38.359375 25.023438 Z M 38.359375 25.023438 "/>
<path style=" stroke:none;fill-rule:nonzero;fill:rgb(98.431373%,82.745099%,92.941177%);fill-opacity:1;" d="M 35.449219 29.445312 C 36.410156 29.445312 37.371094 29.445312 38.359375 29.445312 C 38.519531 29.949219 38.679688 30.449219 38.847656 30.96875 C 37.886719 30.96875 36.921875 30.96875 35.933594 30.96875 C 35.644531 30.433594 35.449219 30.011719 35.449219 29.445312 Z M 35.449219 29.445312 "/>
<path style=" stroke:none;fill-rule:nonzero;fill:rgb(98.039216%,82.745099%,92.54902%);fill-opacity:1;" d="M 34.476562 27.234375 C 35.597656 27.234375 36.71875 27.234375 37.875 27.234375 C 37.957031 27.691406 38.035156 28.148438 38.117188 28.617188 C 37.078125 28.617188 36.035156 28.617188 34.960938 28.617188 C 34.800781 28.160156 34.640625 27.703125 34.476562 27.234375 Z M 34.476562 27.234375 "/>
<path style=" stroke:none;fill-rule:nonzero;fill:rgb(98.823529%,83.92157%,93.333334%);fill-opacity:1;" d="M 47.34375 25.023438 C 48.464844 25.023438 49.585938 25.023438 50.742188 25.023438 C 50.53125 26.09375 50.53125 26.09375 50.257812 26.40625 C 49.296875 26.40625 48.335938 26.40625 47.34375 26.40625 C 47.34375 25.949219 47.34375 25.492188 47.34375 25.023438 Z M 47.34375 25.023438 "/>
<path style=" stroke:none;fill-rule:nonzero;fill:rgb(98.039216%,83.137256%,92.941177%);fill-opacity:1;" d="M 51.230469 27.234375 C 52.351562 27.234375 53.472656 27.234375 54.628906 27.234375 C 54.46875 27.691406 54.308594 28.148438 54.144531 28.617188 C 53.101562 28.617188 52.058594 28.617188 50.988281 28.617188 C 51.066406 28.160156 51.148438 27.703125 51.230469 27.234375 Z M 51.230469 27.234375 "/>
<path style=" stroke:none;fill-rule:nonzero;fill:rgb(93.333334%,78.039217%,90.588236%);fill-opacity:1;" d="M 46.859375 29.308594 C 47.660156 29.308594 48.460938 29.308594 49.285156 29.308594 C 49.207031 29.902344 49.125 30.496094 49.042969 31.105469 C 48.324219 31.105469 47.601562 31.105469 46.859375 31.105469 C 46.859375 30.511719 46.859375 29.917969 46.859375 29.308594 Z M 46.859375 29.308594 "/>
<path style=" stroke:none;fill-rule:nonzero;fill:rgb(94.901961%,79.607844%,91.37255%);fill-opacity:1;" d="M 43.21875 29.445312 C 44.019531 29.445312 44.820312 29.445312 45.644531 29.445312 C 45.644531 29.996094 45.644531 30.542969 45.644531 31.105469 C 44.84375 31.105469 44.042969 31.105469 43.21875 31.105469 C 43.21875 30.558594 43.21875 30.011719 43.21875 29.445312 Z M 43.21875 29.445312 "/>
<path style=" stroke:none;fill-rule:nonzero;fill:rgb(97.254902%,81.960785%,92.156863%);fill-opacity:1;" d="M 38.847656 27.234375 C 39.886719 27.234375 40.929688 27.234375 42.003906 27.234375 C 42.003906 27.691406 42.003906 28.148438 42.003906 28.617188 C 41.121094 28.617188 40.242188 28.617188 39.332031 28.617188 C 39.171875 28.160156 39.011719 27.703125 38.847656 27.234375 Z M 38.847656 27.234375 "/>
<path style=" stroke:none;fill-rule:nonzero;fill:rgb(98.431373%,83.529413%,93.333334%);fill-opacity:1;" d="M 47.101562 27.234375 C 48.0625 27.234375 49.023438 27.234375 50.015625 27.234375 C 49.933594 27.691406 49.855469 28.148438 49.773438 28.617188 C 48.890625 28.617188 48.007812 28.617188 47.101562 28.617188 C 47.101562 28.160156 47.101562 27.703125 47.101562 27.234375 Z M 47.101562 27.234375 "/>
<path style=" stroke:none;fill-rule:nonzero;fill:rgb(43.529412%,20.392157%,47.058824%);fill-opacity:1;" d="M 92.019531 38.570312 C 93.488281 38.542969 93.488281 38.542969 93.960938 38.570312 C 94.445312 38.847656 94.445312 38.847656 94.511719 39.105469 C 94.507812 39.203125 94.507812 39.300781 94.507812 39.402344 C 94.507812 39.496094 94.507812 39.59375 94.511719 39.695312 C 94.445312 39.953125 94.445312 39.953125 93.960938 40.230469 C 93.308594 40.269531 92.675781 40.242188 92.019531 40.230469 C 92.019531 39.683594 92.019531 39.136719 92.019531 38.570312 Z M 92.019531 38.570312 "/>
<path style=" stroke:none;fill-rule:nonzero;fill:rgb(99.215686%,83.92157%,93.333334%);fill-opacity:1;" d="M 43.21875 27.234375 C 44.097656 27.234375 44.980469 27.234375 45.886719 27.234375 C 45.886719 27.691406 45.886719 28.148438 45.886719 28.617188 C 45.007812 28.617188 44.125 28.617188 43.21875 28.617188 C 43.21875 28.160156 43.21875 27.703125 43.21875 27.234375 Z M 43.21875 27.234375 "/>
<path style=" stroke:none;fill-rule:nonzero;fill:rgb(38.431373%,14.117648%,42.352942%);fill-opacity:1;" d="M 86.433594 38.570312 C 88.042969 38.535156 88.042969 38.535156 88.863281 38.847656 C 88.96875 39.324219 88.96875 39.324219 88.863281 39.816406 C 88.46875 40.082031 88.46875 40.082031 87.890625 40.230469 C 87.410156 40.230469 86.929688 40.230469 86.433594 40.230469 C 86.433594 39.683594 86.433594 39.136719 86.433594 38.570312 Z M 86.433594 38.570312 "/>
<path style=" stroke:none;fill-rule:nonzero;fill:rgb(95.686275%,80.392158%,91.37255%);fill-opacity:1;" d="M 39.574219 29.445312 C 40.457031 29.445312 41.335938 29.445312 42.246094 29.445312 C 42.246094 29.949219 42.246094 30.449219 42.246094 30.96875 C 41.523438 30.96875 40.804688 30.96875 40.0625 30.96875 C 39.902344 30.464844 39.738281 29.964844 39.574219 29.445312 Z M 39.574219 29.445312 "/>
<path style=" stroke:none;fill-rule:nonzero;fill:rgb(34.901962%,10.588235%,39.607844%);fill-opacity:1;" d="M 101 38.570312 C 102.042969 38.71875 102.152344 38.78125 102.699219 39.261719 C 102.804688 39.148438 102.910156 39.035156 103.019531 38.917969 C 103.15625 38.804688 103.289062 38.6875 103.429688 38.570312 C 103.667969 38.570312 103.910156 38.570312 104.15625 38.570312 C 104.15625 39.074219 104.15625 39.574219 104.15625 40.09375 C 103.996094 40.09375 103.835938 40.09375 103.671875 40.09375 C 103.671875 39.863281 103.671875 39.636719 103.671875 39.402344 C 103.511719 39.402344 103.351562 39.402344 103.1875 39.402344 C 103.105469 39.539062 103.027344 39.675781 102.945312 39.816406 C 102.625 39.769531 102.304688 39.722656 101.972656 39.675781 C 101.890625 39.859375 101.8125 40.042969 101.730469 40.230469 C 101.488281 40.230469 101.25 40.230469 101 40.230469 C 101 39.683594 101 39.136719 101 38.570312 Z M 101 38.570312 "/>
<path style=" stroke:none;fill-rule:nonzero;fill:rgb(42.352942%,19.215687%,45.882353%);fill-opacity:1;" d="M 83.035156 38.570312 C 83.757812 38.570312 84.476562 38.570312 85.21875 38.570312 C 85.140625 38.890625 85.058594 39.210938 84.976562 39.539062 C 84.578125 39.539062 84.175781 39.539062 83.761719 39.539062 C 83.761719 39.628906 83.761719 39.722656 83.761719 39.816406 C 84.242188 39.816406 84.726562 39.816406 85.21875 39.816406 C 85.21875 39.953125 85.21875 40.089844 85.21875 40.230469 C 84.5 40.230469 83.777344 40.230469 83.035156 40.230469 C 83.035156 39.683594 83.035156 39.136719 83.035156 38.570312 Z M 83.035156 38.570312 "/>
<path style=" stroke:none;fill-rule:nonzero;fill:rgb(43.921569%,20.784314%,47.058824%);fill-opacity:1;" d="M 106.34375 38.570312 C 106.664062 38.570312 106.984375 38.570312 107.3125 38.570312 C 107.476562 38.796875 107.636719 39.019531 107.800781 39.246094 C 107.933594 39.433594 107.933594 39.433594 108.074219 39.625 C 108.285156 39.953125 108.285156 39.953125 108.285156 40.230469 C 108.042969 40.230469 107.804688 40.230469 107.558594 40.230469 C 107.558594 40.140625 107.558594 40.046875 107.558594 39.953125 C 107.078125 39.953125 106.59375 39.953125 106.101562 39.953125 C 106.101562 40.046875 106.101562 40.136719 106.101562 40.230469 C 105.859375 40.230469 105.621094 40.230469 105.371094 40.230469 C 105.535156 39.625 105.902344 39.128906 106.34375 38.570312 Z M 106.34375 38.570312 "/>
<path style=" stroke:none;fill-rule:nonzero;fill:rgb(35.686275%,10.980392%,40.000001%);fill-opacity:1;" d="M 109.5 38.570312 C 110.46875 38.710938 110.46875 38.710938 110.957031 39.125 C 111.035156 38.941406 111.117188 38.757812 111.199219 38.570312 C 111.4375 38.570312 111.679688 38.570312 111.925781 38.570312 C 111.925781 39.117188 111.925781 39.667969 111.925781 40.230469 C 110.957031 40.09375 110.957031 40.09375 110.53125 39.738281 C 110.429688 39.625 110.332031 39.515625 110.226562 39.402344 C 110.148438 39.675781 110.066406 39.949219 109.984375 40.230469 C 109.824219 40.230469 109.664062 40.230469 109.5 40.230469 C 109.5 39.683594 109.5 39.136719 109.5 38.570312 Z M 109.5 38.570312 "/>
<path style=" stroke:none;fill-rule:nonzero;fill:rgb(41.960785%,18.431373%,45.490196%);fill-opacity:1;" d="M 77.195312 38.542969 C 77.683594 38.554688 78.175781 38.5625 78.664062 38.570312 C 78.664062 38.707031 78.664062 38.84375 78.664062 38.984375 C 78.265625 39.03125 77.863281 39.078125 77.449219 39.125 C 77.851562 39.261719 78.25 39.398438 78.664062 39.539062 C 78.453125 40.074219 78.453125 40.074219 78.179688 40.230469 C 77.53125 40.25 76.886719 40.234375 76.238281 40.230469 C 76.238281 40.09375 76.238281 39.957031 76.238281 39.816406 C 76.71875 39.769531 77.199219 39.722656 77.695312 39.675781 C 77.5 39.644531 77.304688 39.609375 77.101562 39.574219 C 76.480469 39.402344 76.480469 39.402344 76.25 39.125 C 76.246094 39.03125 76.242188 38.941406 76.238281 38.847656 C 76.722656 38.570312 76.722656 38.570312 77.195312 38.542969 Z M 77.195312 38.542969 "/>
<path style=" stroke:none;fill-rule:nonzero;fill:rgb(38.82353%,14.509805%,42.745098%);fill-opacity:1;" d="M 72.59375 38.570312 C 72.835938 38.570312 73.074219 38.570312 73.324219 38.570312 C 73.402344 38.9375 73.484375 39.300781 73.566406 39.675781 C 73.804688 39.675781 74.046875 39.675781 74.292969 39.675781 C 74.375 39.3125 74.453125 38.949219 74.539062 38.570312 C 74.777344 38.570312 75.019531 38.570312 75.265625 38.570312 C 75.285156 38.769531 75.300781 38.96875 75.3125 39.167969 C 75.320312 39.277344 75.328125 39.390625 75.335938 39.503906 C 75.265625 39.816406 75.265625 39.816406 74.9375 40.058594 C 74.539062 40.230469 74.539062 40.230469 73.929688 40.28125 C 73.203125 40.21875 73.035156 40.144531 72.59375 39.816406 C 72.523438 39.503906 72.523438 39.503906 72.550781 39.167969 C 72.554688 39.054688 72.5625 38.945312 72.570312 38.828125 C 72.578125 38.742188 72.585938 38.660156 72.59375 38.570312 Z M 72.59375 38.570312 "/>
<path style=" stroke:none;fill-rule:nonzero;fill:rgb(36.078432%,11.372549%,40.392157%);fill-opacity:1;" d="M 69.195312 38.570312 C 70.015625 38.554688 70.015625 38.554688 70.894531 38.570312 C 71.054688 38.664062 71.214844 38.753906 71.382812 38.847656 C 71.339844 38.980469 71.300781 39.109375 71.257812 39.246094 C 71.128906 39.707031 71.1875 39.851562 71.625 40.230469 C 71.046875 40.203125 71.046875 40.203125 70.410156 40.09375 C 70.089844 39.738281 70.089844 39.738281 69.925781 39.402344 C 70.164062 39.402344 70.40625 39.402344 70.652344 39.402344 C 70.652344 39.21875 70.652344 39.035156 70.652344 38.847656 C 70.332031 38.847656 70.011719 38.847656 69.679688 38.847656 C 69.679688 39.257812 69.679688 39.667969 69.679688 40.09375 C 69.519531 40.09375 69.359375 40.09375 69.195312 40.09375 C 69.195312 39.589844 69.195312 39.089844 69.195312 38.570312 Z M 69.195312 38.570312 "/>
<path style=" stroke:none;fill-rule:nonzero;fill:rgb(39.215687%,15.294118%,43.529412%);fill-opacity:1;" d="M 113.140625 38.570312 C 113.382812 38.570312 113.621094 38.570312 113.871094 38.570312 C 113.871094 38.753906 113.871094 38.9375 113.871094 39.125 C 114.191406 39.125 114.511719 39.125 114.839844 39.125 C 114.839844 38.941406 114.839844 38.757812 114.839844 38.570312 C 115.082031 38.570312 115.320312 38.570312 115.570312 38.570312 C 115.597656 38.898438 115.597656 38.898438 115.570312 39.261719 C 115.410156 39.355469 115.25 39.445312 115.082031 39.539062 C 114.925781 39.894531 114.925781 39.894531 114.839844 40.230469 C 114.601562 40.230469 114.359375 40.230469 114.113281 40.230469 C 114.113281 40.003906 114.113281 39.773438 114.113281 39.539062 C 113.792969 39.449219 113.472656 39.355469 113.140625 39.261719 C 113.140625 39.035156 113.140625 38.804688 113.140625 38.570312 Z M 113.140625 38.570312 "/>
<path style=" stroke:none;fill-rule:nonzero;fill:rgb(38.039216%,14.117648%,42.352942%);fill-opacity:1;" d="M 95.417969 38.570312 C 95.65625 38.570312 95.898438 38.570312 96.144531 38.570312 C 96.226562 38.753906 96.304688 38.9375 96.386719 39.125 C 96.628906 39.125 96.871094 39.125 97.117188 39.125 C 97.195312 38.941406 97.277344 38.757812 97.359375 38.570312 C 97.601562 38.570312 97.839844 38.570312 98.089844 38.570312 C 98.007812 38.84375 97.929688 39.117188 97.84375 39.402344 C 97.605469 39.445312 97.363281 39.492188 97.117188 39.539062 C 97.117188 39.765625 97.117188 39.996094 97.117188 40.230469 C 96.875 40.230469 96.636719 40.230469 96.386719 40.230469 C 96.386719 40.003906 96.386719 39.773438 96.386719 39.539062 C 96.148438 39.492188 95.90625 39.449219 95.660156 39.402344 C 95.578125 39.128906 95.5 38.851562 95.417969 38.570312 Z M 95.417969 38.570312 "/>
<path style=" stroke:none;fill-rule:nonzero;fill:rgb(39.607844%,15.686275%,43.529412%);fill-opacity:1;" d="M 79.636719 38.570312 C 80.4375 38.570312 81.238281 38.570312 82.0625 38.570312 C 82.0625 38.664062 82.0625 38.753906 82.0625 38.847656 C 81.742188 38.847656 81.421875 38.847656 81.09375 38.847656 C 81.09375 39.304688 81.09375 39.761719 81.09375 40.230469 C 80.851562 40.230469 80.613281 40.230469 80.363281 40.230469 C 80.363281 39.820312 80.363281 39.410156 80.363281 38.984375 C 80.125 38.984375 79.882812 38.984375 79.636719 38.984375 C 79.636719 38.847656 79.636719 38.710938 79.636719 38.570312 Z M 79.636719 38.570312 "/>
<path style=" stroke:none;fill-rule:nonzero;fill:rgb(36.862746%,12.54902%,41.176471%);fill-opacity:1;" d="M 65.554688 38.570312 C 66.273438 38.570312 66.996094 38.570312 67.738281 38.570312 C 67.738281 38.664062 67.738281 38.753906 67.738281 38.847656 C 67.5 38.847656 67.257812 38.847656 67.011719 38.847656 C 67.011719 39.304688 67.011719 39.761719 67.011719 40.230469 C 66.769531 40.230469 66.53125 40.230469 66.28125 40.230469 C 66.28125 39.773438 66.28125 39.316406 66.28125 38.847656 C 66.042969 38.847656 65.800781 38.847656 65.554688 38.847656 C 65.554688 38.757812 65.554688 38.664062 65.554688 38.570312 Z M 65.554688 38.570312 "/>
<path style=" stroke:none;fill-rule:nonzero;fill:rgb(69.01961%,49.803922%,68.235296%);fill-opacity:1;" d="M 68.953125 38.570312 C 69.03125 38.570312 69.113281 38.570312 69.195312 38.570312 C 69.195312 39.074219 69.195312 39.574219 69.195312 40.09375 C 69.355469 40.09375 69.515625 40.09375 69.679688 40.09375 C 69.679688 39.679688 69.679688 39.269531 69.679688 38.847656 C 70 38.847656 70.324219 38.847656 70.652344 38.847656 C 70.652344 39.03125 70.652344 39.214844 70.652344 39.402344 C 70.414062 39.402344 70.171875 39.402344 69.925781 39.402344 C 69.925781 39.675781 69.925781 39.949219 69.925781 40.230469 C 69.605469 40.230469 69.28125 40.230469 68.953125 40.230469 C 68.953125 39.683594 68.953125 39.136719 68.953125 38.570312 Z M 68.953125 38.570312 "/>
<path style=" stroke:none;fill-rule:nonzero;fill:rgb(95.686275%,80.784315%,91.764706%);fill-opacity:1;" d="M 50.742188 33.871094 C 51.246094 33.929688 51.246094 33.929688 51.714844 34.007812 C 51.714844 34.238281 51.714844 34.464844 51.714844 34.699219 C 51.3125 34.699219 50.914062 34.699219 50.5 34.699219 C 50.492188 34.46875 50.492188 34.238281 50.5 34.007812 C 50.582031 33.964844 50.660156 33.917969 50.742188 33.871094 Z M 50.742188 33.871094 "/>
<path style=" stroke:none;fill-rule:nonzero;fill:rgb(38.039216%,14.117648%,42.352942%);fill-opacity:1;" d="M 106.34375 38.570312 C 106.664062 38.570312 106.984375 38.570312 107.3125 38.570312 C 107.394531 38.753906 107.472656 38.9375 107.558594 39.125 C 107.238281 39.125 106.914062 39.125 106.585938 39.125 C 106.585938 39.214844 106.585938 39.308594 106.585938 39.402344 C 106.34375 39.445312 106.105469 39.492188 105.855469 39.539062 C 106.070312 38.882812 106.070312 38.882812 106.34375 38.570312 Z M 106.34375 38.570312 "/>
<path style=" stroke:none;fill-rule:nonzero;fill:rgb(98.039216%,82.352942%,92.54902%);fill-opacity:1;" d="M 37.148438 34.007812 C 37.546875 34.054688 37.949219 34.101562 38.359375 34.148438 C 38.28125 34.328125 38.199219 34.511719 38.117188 34.699219 C 37.71875 34.65625 37.316406 34.609375 36.90625 34.5625 C 36.984375 34.378906 37.066406 34.195312 37.148438 34.007812 Z M 37.148438 34.007812 "/>
<path style=" stroke:none;fill-rule:nonzero;fill:rgb(95.686275%,80.784315%,90.980393%);fill-opacity:1;" d="M 87.164062 38.984375 C 87.484375 38.984375 87.804688 38.984375 88.132812 38.984375 C 88.132812 39.214844 88.132812 39.441406 88.132812 39.675781 C 87.8125 39.722656 87.492188 39.769531 87.164062 39.816406 C 87.164062 39.542969 87.164062 39.269531 87.164062 38.984375 Z M 87.164062 38.984375 "/>
<path style=" stroke:none;fill-rule:nonzero;fill:rgb(99.607843%,99.215686%,99.607843%);fill-opacity:1;" d="M 0 0 C 0.480469 0 0.960938 0 1.457031 0 C 1.058594 0.28125 0.652344 0.554688 0.242188 0.828125 C 0.164062 0.828125 0.0820312 0.828125 0 0.828125 C 0 0.554688 0 0.28125 0 0 Z M 0 0 "/>
</g>
</svg>
