<?xml version="1.0" encoding="UTF-8"?>
<svg xmlns="http://www.w3.org/2000/svg" xmlns:xlink="http://www.w3.org/1999/xlink" width="300px" height="140px" viewBox="0 0 300 140" version="1.1">
<g id="surface1">
<path style=" stroke:none;fill-rule:nonzero;fill:rgb(99.607843%,99.607843%,99.607843%);fill-opacity:1;" d="M 0 0 C 99 0 198 0 300 0 C 300 46.199219 300 92.398438 300 140 C 201 140 102 140 0 140 C 0 93.800781 0 47.601562 0 0 Z M 0 0 "/>
<path style=" stroke:none;fill-rule:nonzero;fill:rgb(99.215686%,99.215686%,99.215686%);fill-opacity:1;" d="M 106.125 59.304688 C 106.125 67.433594 106.125 75.5625 106.125 83.933594 C 102.507812 85.027344 102.507812 85.027344 100.503906 85.359375 C 99.832031 85.472656 99.832031 85.472656 99.148438 85.585938 C 98.675781 85.664062 98.199219 85.738281 97.710938 85.820312 C 97.214844 85.902344 96.714844 85.984375 96.199219 86.070312 C 93.554688 86.507812 90.90625 86.9375 88.257812 87.363281 C 87.484375 87.488281 87.484375 87.488281 86.699219 87.617188 C 85.683594 87.78125 84.664062 87.945312 83.648438 88.109375 C 80.386719 88.636719 77.160156 89.214844 73.945312 89.878906 C 72.53125 90.101562 71.277344 90.132812 69.832031 90.09375 C 69.746094 87.410156 70.015625 84.757812 70.316406 82.085938 C 70.367188 81.628906 70.417969 81.171875 70.46875 80.714844 C 70.601562 79.519531 70.734375 78.324219 70.871094 77.128906 C 71.03125 75.6875 71.191406 74.246094 71.351562 72.804688 C 71.476562 71.679688 71.601562 70.554688 71.726562 69.429688 C 72.03125 66.703125 72.316406 63.976562 72.589844 61.25 C 74.4375 60.96875 76.121094 60.890625 78.015625 60.90625 C 78.546875 60.910156 79.082031 60.910156 79.632812 60.914062 C 80.035156 60.917969 80.441406 60.921875 80.859375 60.925781 C 80.707031 61.996094 80.554688 63.066406 80.398438 64.167969 C 81.15625 64.167969 81.914062 64.167969 82.695312 64.167969 C 83.273438 63.832031 83.273438 63.832031 83.199219 63.101562 C 83.195312 62.804688 83.1875 62.507812 83.183594 62.203125 C 83.179688 61.902344 83.175781 61.605469 83.171875 61.300781 C 83.164062 61.070312 83.160156 60.839844 83.15625 60.601562 C 84.554688 60.273438 85.609375 60.214844 87.078125 60.175781 C 87.574219 60.160156 88.066406 60.148438 88.574219 60.132812 C 89.085938 60.121094 89.601562 60.109375 90.132812 60.09375 C 90.652344 60.082031 91.171875 60.066406 91.707031 60.054688 C 92.992188 60.019531 94.273438 59.984375 95.558594 59.953125 C 95.578125 60.992188 95.519531 61.871094 95.097656 62.871094 C 96.199219 63.089844 96.199219 63.089844 97.398438 63.195312 C 98.378906 62.5 98.511719 62.179688 98.773438 61.25 C 98.472656 61.25 98.167969 61.25 97.855469 61.25 C 97.855469 60.714844 97.855469 60.179688 97.855469 59.628906 C 100.699219 59.332031 103.191406 59.304688 106.125 59.304688 Z M 106.125 59.304688 "/>
<path style=" stroke:none;fill-rule:nonzero;fill:rgb(1.960784%,1.960784%,1.960784%);fill-opacity:1;" d="M 88.496094 48.410156 C 89.585938 48.933594 89.585938 48.933594 90.503906 49.582031 C 91.140625 49.734375 91.78125 49.867188 92.429688 49.988281 C 94.65625 50.484375 96.316406 51.257812 97.855469 52.5 C 98.316406 53.476562 98.363281 54.132812 98.34375 55.152344 C 98.339844 55.445312 98.335938 55.738281 98.332031 56.039062 C 98.328125 56.261719 98.320312 56.484375 98.316406 56.714844 C 98.628906 56.753906 98.945312 56.792969 99.269531 56.835938 C 100.78125 57.0625 102.238281 57.363281 103.714844 57.683594 C 104.242188 57.796875 104.769531 57.914062 105.3125 58.03125 C 106.585938 58.332031 106.585938 58.332031 107.042969 58.65625 C 107.097656 59.449219 107.121094 60.234375 107.125 61.027344 C 107.128906 61.277344 107.132812 61.523438 107.136719 61.78125 C 107.144531 62.605469 107.148438 63.429688 107.152344 64.253906 C 107.15625 64.535156 107.15625 64.816406 107.160156 65.105469 C 107.167969 66.59375 107.175781 68.078125 107.179688 69.566406 C 107.183594 71.105469 107.199219 72.644531 107.21875 74.183594 C 107.230469 75.363281 107.234375 76.542969 107.238281 77.722656 C 107.238281 78.289062 107.246094 78.859375 107.253906 79.425781 C 107.265625 80.21875 107.261719 81.011719 107.261719 81.804688 C 107.265625 82.039062 107.273438 82.273438 107.277344 82.515625 C 107.261719 83.570312 107.25 84.113281 106.179688 84.882812 C 105.089844 85.273438 104.097656 85.492188 102.902344 85.683594 C 102.21875 85.796875 102.21875 85.796875 101.523438 85.910156 C 101.03125 85.988281 100.542969 86.0625 100.039062 86.144531 C 98.996094 86.3125 97.953125 86.484375 96.910156 86.65625 C 96.378906 86.742188 95.847656 86.828125 95.296875 86.914062 C 92.890625 87.3125 90.492188 87.742188 88.09375 88.167969 C 84.527344 88.800781 80.957031 89.425781 77.382812 90.03125 C 76.796875 90.132812 76.796875 90.132812 76.199219 90.234375 C 75.476562 90.355469 74.75 90.476562 74.019531 90.585938 C 73.164062 90.722656 72.3125 90.882812 71.464844 91.042969 C 68.992188 91.074219 67.234375 90.316406 65.09375 89.503906 C 64.46875 89.28125 64.46875 89.28125 63.832031 89.050781 C 60.804688 87.9375 60.804688 87.9375 59.722656 87.175781 C 59.484375 82.753906 60.917969 78.148438 61.761719 73.789062 C 62.050781 72.289062 62.335938 70.792969 62.621094 69.292969 C 62.691406 68.9375 62.761719 68.578125 62.832031 68.207031 C 63.285156 65.816406 63.691406 63.425781 64.035156 61.023438 C 64.175781 60.074219 64.347656 59.246094 64.777344 58.332031 C 68.113281 58.226562 71.449219 58.121094 74.886719 58.007812 C 74.964844 56.070312 74.964844 56.070312 75.023438 54.132812 C 75.144531 51.972656 76.066406 50.820312 78.074219 49.179688 C 80.925781 47.46875 85.132812 47.507812 88.496094 48.410156 Z M 97.855469 59.628906 C 97.855469 60.164062 97.855469 60.699219 97.855469 61.25 C 98.160156 61.25 98.460938 61.25 98.773438 61.25 C 98.460938 62.039062 98.460938 62.039062 97.855469 62.871094 C 96.648438 63.132812 96.648438 63.132812 95.558594 63.195312 C 95.300781 62.566406 95.300781 62.566406 95.097656 61.898438 C 95.25 61.792969 95.402344 61.683594 95.558594 61.574219 C 95.578125 61.035156 95.578125 60.492188 95.558594 59.953125 C 93.75 60 91.941406 60.046875 90.132812 60.09375 C 89.617188 60.109375 89.101562 60.121094 88.574219 60.132812 C 87.832031 60.15625 87.832031 60.15625 87.078125 60.175781 C 86.398438 60.191406 86.398438 60.191406 85.703125 60.210938 C 84.476562 60.246094 84.476562 60.246094 83.15625 60.601562 C 83.160156 60.832031 83.164062 61.0625 83.171875 61.300781 C 83.175781 61.597656 83.179688 61.894531 83.183594 62.203125 C 83.1875 62.5 83.195312 62.796875 83.199219 63.101562 C 83.15625 63.84375 83.15625 63.84375 82.695312 64.167969 C 81.929688 64.179688 81.164062 64.179688 80.398438 64.167969 C 80.351562 63.03125 80.523438 62.035156 80.859375 60.925781 C 79.910156 60.917969 78.960938 60.910156 78.015625 60.90625 C 77.488281 60.902344 76.960938 60.898438 76.414062 60.894531 C 75.066406 60.921875 73.902344 61.050781 72.589844 61.25 C 72.566406 61.460938 72.546875 61.671875 72.523438 61.890625 C 72.300781 64.125 72.078125 66.359375 71.851562 68.59375 C 71.769531 69.421875 71.6875 70.253906 71.605469 71.082031 C 71.164062 75.527344 70.71875 79.96875 70.109375 84.402344 C 69.859375 86.304688 69.785156 88.183594 69.832031 90.09375 C 73.144531 89.921875 76.195312 89.503906 79.394531 88.878906 C 80.324219 88.699219 81.257812 88.523438 82.191406 88.347656 C 82.660156 88.261719 83.128906 88.171875 83.609375 88.082031 C 85.71875 87.6875 87.835938 87.328125 89.960938 86.972656 C 90.550781 86.875 90.550781 86.875 91.152344 86.773438 C 93.085938 86.453125 95.023438 86.144531 96.96875 85.847656 C 97.339844 85.792969 97.710938 85.734375 98.097656 85.679688 C 98.789062 85.574219 99.484375 85.472656 100.179688 85.371094 C 100.492188 85.324219 100.804688 85.277344 101.125 85.230469 C 101.394531 85.191406 101.664062 85.152344 101.9375 85.109375 C 103.378906 84.808594 104.746094 84.351562 106.125 83.933594 C 106.125 75.808594 106.125 67.679688 106.125 59.304688 C 103.191406 59.304688 100.699219 59.332031 97.855469 59.628906 Z M 97.855469 59.628906 "/>
<path style=" stroke:none;fill-rule:nonzero;fill:rgb(21.176471%,21.176471%,21.176471%);fill-opacity:1;" d="M 184.226562 45.046875 C 186.570312 45.03125 188.914062 45.019531 191.257812 45.011719 C 192.050781 45.007812 192.84375 45.003906 193.636719 44.996094 C 197.78125 44.96875 201.878906 44.996094 206.003906 45.328125 C 206.320312 45.355469 206.632812 45.378906 206.960938 45.40625 C 211.179688 45.789062 213.96875 46.964844 216.671875 49.238281 C 218.683594 51.363281 218.527344 53.589844 218.222656 56.066406 C 217.601562 58.039062 216.480469 59.609375 214.171875 60.847656 C 209.574219 62.695312 204.546875 62.925781 199.386719 62.890625 C 198.648438 62.886719 197.914062 62.882812 197.175781 62.878906 C 196.535156 62.875 195.894531 62.875 195.253906 62.871094 C 195.285156 64.542969 195.324219 66.214844 195.375 67.886719 C 195.386719 68.453125 195.402344 69.023438 195.410156 69.589844 C 195.425781 70.410156 195.453125 71.230469 195.476562 72.046875 C 195.480469 72.300781 195.484375 72.554688 195.484375 72.8125 C 195.546875 74.371094 195.890625 75.449219 197.089844 76.804688 C 197.6875 77.144531 198.296875 77.472656 198.929688 77.777344 C 198.929688 77.992188 198.929688 78.207031 198.929688 78.425781 C 194.226562 78.425781 189.527344 78.425781 184.6875 78.425781 C 184.6875 78.210938 184.6875 78 184.6875 77.777344 C 185.121094 77.582031 185.558594 77.390625 186.007812 77.191406 C 187.609375 76.398438 187.835938 76.148438 188.363281 74.859375 C 188.453125 73.984375 188.496094 73.144531 188.496094 72.269531 C 188.496094 72.011719 188.5 71.757812 188.503906 71.492188 C 188.511719 70.648438 188.515625 69.804688 188.515625 68.957031 C 188.519531 68.371094 188.523438 67.78125 188.523438 67.191406 C 188.53125 65.957031 188.53125 64.726562 188.53125 63.492188 C 188.53125 61.914062 188.542969 60.335938 188.558594 58.757812 C 188.570312 57.542969 188.570312 56.324219 188.570312 55.109375 C 188.574219 54.527344 188.578125 53.945312 188.582031 53.363281 C 188.59375 52.550781 188.589844 51.734375 188.585938 50.921875 C 188.589844 50.683594 188.59375 50.445312 188.601562 50.199219 C 188.570312 48.550781 188.011719 47.605469 186.523438 46.34375 C 185.328125 45.886719 185.328125 45.886719 184.226562 45.695312 C 184.226562 45.480469 184.226562 45.265625 184.226562 45.046875 Z M 184.226562 45.046875 "/>
<path style=" stroke:none;fill-rule:nonzero;fill:rgb(22.745098%,22.745098%,22.745098%);fill-opacity:1;" d="M 123.125 45.046875 C 133.570312 44.332031 133.570312 44.332031 136.589844 45.433594 C 138.273438 46.425781 139.417969 47.660156 140.523438 48.984375 C 141.285156 49.867188 142.21875 50.625 143.167969 51.40625 C 143.648438 51.828125 143.648438 51.828125 144.144531 52.253906 C 146 53.859375 147.886719 55.449219 149.769531 57.035156 C 151.5 56.546875 152.335938 55.855469 153.472656 54.828125 C 153.835938 54.507812 154.195312 54.191406 154.566406 53.859375 C 154.851562 53.605469 154.851562 53.605469 155.144531 53.347656 C 156.371094 52.273438 157.636719 51.222656 158.929688 50.1875 C 159.992188 49.328125 160.84375 48.550781 161.648438 47.550781 C 162.644531 46.386719 163.277344 45.769531 164.929688 45.046875 C 168.5625 44.613281 172.304688 44.828125 175.957031 45.046875 C 175.957031 45.261719 175.957031 45.472656 175.957031 45.695312 C 175.042969 46.128906 174.121094 46.5625 173.199219 46.992188 C 172.050781 48.210938 172.152344 49.164062 172.164062 50.578125 C 172.160156 50.84375 172.160156 51.109375 172.15625 51.382812 C 172.152344 52.265625 172.15625 53.144531 172.160156 54.027344 C 172.160156 54.640625 172.160156 55.25 172.15625 55.863281 C 172.15625 57.148438 172.15625 58.433594 172.160156 59.714844 C 172.167969 61.363281 172.164062 63.007812 172.160156 64.652344 C 172.15625 65.917969 172.15625 67.183594 172.160156 68.445312 C 172.160156 69.054688 172.160156 69.660156 172.15625 70.265625 C 172.152344 71.113281 172.15625 71.964844 172.164062 72.8125 C 172.160156 73.0625 172.160156 73.3125 172.15625 73.570312 C 172.171875 74.886719 172.261719 75.972656 173.199219 77.128906 C 174.59375 77.574219 174.59375 77.574219 175.957031 77.777344 C 175.957031 77.992188 175.957031 78.207031 175.957031 78.425781 C 170.953125 78.425781 165.949219 78.425781 160.796875 78.425781 C 160.796875 78.210938 160.796875 78 160.796875 77.777344 C 161.230469 77.644531 161.667969 77.511719 162.117188 77.371094 C 163.667969 76.761719 163.914062 76.644531 164.472656 75.507812 C 164.566406 74.65625 164.613281 73.835938 164.617188 72.980469 C 164.621094 72.730469 164.628906 72.476562 164.632812 72.214844 C 164.644531 71.378906 164.652344 70.546875 164.660156 69.710938 C 164.671875 69.132812 164.679688 68.550781 164.6875 67.972656 C 164.710938 66.449219 164.730469 64.925781 164.746094 63.402344 C 164.765625 61.847656 164.789062 60.292969 164.8125 58.734375 C 164.855469 55.683594 164.894531 52.632812 164.929688 49.582031 C 161.582031 51.9375 158.507812 54.414062 155.535156 57.007812 C 153.226562 59.003906 150.792969 60.929688 148.390625 62.871094 C 146.449219 62.253906 145.332031 61.316406 144 60.175781 C 143.757812 59.972656 143.519531 59.773438 143.269531 59.566406 C 142.769531 59.144531 142.269531 58.726562 141.773438 58.304688 C 141.085938 57.722656 140.398438 57.148438 139.703125 56.574219 C 137.308594 54.589844 134.953125 52.589844 132.625 50.570312 C 131.925781 49.949219 131.925781 49.949219 131.394531 49.582031 C 131.363281 52.9375 131.335938 56.289062 131.320312 59.640625 C 131.316406 61.195312 131.304688 62.753906 131.289062 64.308594 C 131.273438 65.8125 131.265625 67.316406 131.261719 68.816406 C 131.261719 69.390625 131.253906 69.964844 131.246094 70.535156 C 131.238281 71.339844 131.238281 72.140625 131.238281 72.945312 C 131.230469 73.183594 131.226562 73.417969 131.222656 73.664062 C 131.234375 75.089844 131.511719 76 132.773438 77.128906 C 133.953125 77.566406 133.953125 77.566406 135.070312 77.777344 C 135.070312 77.992188 135.070312 78.207031 135.070312 78.425781 C 131.128906 78.425781 127.183594 78.425781 123.125 78.425781 C 123.125 78.210938 123.125 78 123.125 77.777344 C 123.558594 77.644531 123.996094 77.511719 124.445312 77.371094 C 126 76.757812 126.246094 76.648438 126.800781 75.507812 C 126.890625 74.605469 126.933594 73.730469 126.933594 72.824219 C 126.9375 72.554688 126.9375 72.285156 126.941406 72.007812 C 126.949219 71.113281 126.953125 70.222656 126.953125 69.332031 C 126.957031 68.710938 126.960938 68.089844 126.964844 67.472656 C 126.96875 66.171875 126.96875 64.875 126.96875 63.574219 C 126.96875 61.910156 126.980469 60.246094 126.996094 58.578125 C 127.007812 57.300781 127.011719 56.019531 127.007812 54.738281 C 127.011719 54.125 127.015625 53.511719 127.023438 52.898438 C 127.03125 52.039062 127.027344 51.183594 127.023438 50.324219 C 127.027344 50.070312 127.03125 49.816406 127.039062 49.554688 C 127.019531 48.40625 126.941406 47.769531 125.929688 46.847656 C 125.023438 46.375 124.160156 46.007812 123.125 45.695312 C 123.125 45.480469 123.125 45.265625 123.125 45.046875 Z M 123.125 45.046875 "/>
<path style=" stroke:none;fill-rule:nonzero;fill:rgb(8.235294%,8.235294%,8.235294%);fill-opacity:1;" d="M 88.496094 48.410156 C 89.585938 48.933594 89.585938 48.933594 90.503906 49.582031 C 91.140625 49.734375 91.78125 49.867188 92.429688 49.988281 C 94.65625 50.484375 96.316406 51.257812 97.855469 52.5 C 98.316406 53.476562 98.363281 54.132812 98.34375 55.152344 C 98.339844 55.445312 98.335938 55.738281 98.332031 56.039062 C 98.328125 56.261719 98.320312 56.484375 98.316406 56.714844 C 98.996094 56.875 98.996094 56.875 99.695312 57.035156 C 99.390625 57.144531 99.085938 57.25 98.773438 57.359375 C 98.792969 57.640625 98.8125 57.921875 98.832031 58.210938 C 98.773438 59.34375 98.425781 60.195312 97.855469 61.25 C 98.160156 61.25 98.460938 61.25 98.773438 61.25 C 98.429688 62.789062 98.429688 62.789062 97.398438 63.519531 C 96.191406 63.398438 96.191406 63.398438 95.097656 63.195312 C 94.351562 61.824219 94.800781 61.5625 95.558594 59.953125 C 91.464844 60.167969 87.371094 60.382812 83.15625 60.601562 C 83.382812 62.207031 83.382812 62.207031 83.613281 63.84375 C 82.695312 64.492188 82.695312 64.492188 81.519531 64.550781 C 80.398438 64.492188 80.398438 64.492188 79.9375 64.167969 C 79.792969 62.921875 80.125 62.058594 80.859375 60.925781 C 79.5625 60.621094 78.863281 60.574219 77.53125 60.605469 C 77.15625 60.609375 76.777344 60.617188 76.390625 60.621094 C 75.601562 60.636719 74.816406 60.652344 74.027344 60.671875 C 71.644531 60.699219 70.082031 60.546875 67.992188 59.628906 C 68.296875 59.414062 68.601562 59.203125 68.914062 58.980469 C 67.546875 58.875 66.183594 58.769531 64.777344 58.65625 C 64.777344 58.550781 64.777344 58.445312 64.777344 58.332031 C 68.113281 58.226562 71.449219 58.121094 74.886719 58.007812 C 74.964844 56.070312 74.964844 56.070312 75.023438 54.132812 C 75.144531 51.972656 76.066406 50.820312 78.074219 49.179688 C 80.925781 47.46875 85.132812 47.507812 88.496094 48.410156 Z M 88.496094 48.410156 "/>
<path style=" stroke:none;fill-rule:nonzero;fill:rgb(21.176471%,21.176471%,21.176471%);fill-opacity:1;" d="M 226.492188 45.046875 C 231.34375 45.046875 236.195312 45.046875 241.195312 45.046875 C 241.195312 45.261719 241.195312 45.472656 241.195312 45.695312 C 240.757812 45.894531 240.324219 46.09375 239.875 46.300781 C 238.242188 47.082031 238.242188 47.082031 237.519531 48.285156 C 237.429688 49.148438 237.390625 49.980469 237.394531 50.84375 C 237.390625 51.097656 237.386719 51.355469 237.386719 51.621094 C 237.378906 52.464844 237.378906 53.3125 237.382812 54.160156 C 237.378906 54.746094 237.378906 55.335938 237.375 55.925781 C 237.371094 57.160156 237.371094 58.398438 237.375 59.632812 C 237.375 61.210938 237.367188 62.792969 237.359375 64.375 C 237.351562 65.589844 237.351562 66.808594 237.351562 68.027344 C 237.351562 68.609375 237.351562 69.191406 237.34375 69.773438 C 237.339844 70.589844 237.34375 71.40625 237.347656 72.222656 C 237.34375 72.460938 237.339844 72.699219 237.335938 72.945312 C 237.359375 74.46875 237.742188 75.515625 238.898438 76.804688 C 240.085938 77.367188 240.085938 77.367188 241.195312 77.777344 C 241.195312 77.992188 241.195312 78.207031 241.195312 78.425781 C 236.191406 78.425781 231.1875 78.425781 226.035156 78.425781 C 226.035156 78.210938 226.035156 78 226.035156 77.777344 C 226.671875 77.585938 226.671875 77.585938 227.324219 77.394531 C 228.984375 76.726562 229.386719 76.390625 230.167969 75.183594 C 230.300781 74.285156 230.355469 73.457031 230.347656 72.558594 C 230.347656 72.296875 230.351562 72.039062 230.355469 71.769531 C 230.359375 70.914062 230.355469 70.058594 230.351562 69.199219 C 230.351562 68.601562 230.355469 68.007812 230.355469 67.410156 C 230.359375 66.160156 230.355469 64.910156 230.347656 63.660156 C 230.339844 62.058594 230.34375 60.457031 230.351562 58.855469 C 230.359375 57.625 230.355469 56.394531 230.351562 55.160156 C 230.351562 54.570312 230.351562 53.980469 230.355469 53.390625 C 230.359375 52.566406 230.355469 51.738281 230.347656 50.914062 C 230.347656 50.671875 230.351562 50.429688 230.355469 50.175781 C 230.332031 48.734375 230.058594 47.808594 228.789062 46.667969 C 228.035156 46.332031 227.269531 46.003906 226.492188 45.695312 C 226.492188 45.480469 226.492188 45.265625 226.492188 45.046875 Z M 226.492188 45.046875 "/>
<path style=" stroke:none;fill-rule:nonzero;fill:rgb(98.039216%,98.039216%,98.039216%);fill-opacity:1;" d="M 200.105469 47.539062 C 200.511719 47.527344 200.917969 47.519531 201.332031 47.507812 C 204.4375 47.488281 206.964844 47.878906 209.292969 49.40625 C 211.402344 51.082031 211.5 52.640625 211.457031 54.804688 C 211.230469 56.5 210.636719 57.949219 208.789062 59.097656 C 206.128906 60.457031 203.765625 60.484375 200.566406 60.398438 C 200.101562 60.394531 199.640625 60.390625 199.164062 60.386719 C 195.796875 60.335938 195.796875 60.335938 195.253906 59.953125 C 195.207031 59.070312 195.1875 58.195312 195.191406 57.308594 C 195.191406 57.046875 195.191406 56.78125 195.191406 56.507812 C 195.191406 55.945312 195.191406 55.386719 195.191406 54.824219 C 195.195312 53.960938 195.191406 53.101562 195.191406 52.238281 C 195.191406 51.695312 195.191406 51.148438 195.191406 50.605469 C 195.191406 50.347656 195.191406 50.085938 195.1875 49.820312 C 195.207031 47.0625 196.648438 47.5625 200.105469 47.539062 Z M 200.105469 47.539062 "/>
<path style=" stroke:none;fill-rule:nonzero;fill:rgb(9.411765%,9.411765%,9.411765%);fill-opacity:1;" d="M 98.316406 57.035156 C 105.402344 57.5 105.402344 57.5 107.042969 58.65625 C 107.097656 59.449219 107.121094 60.234375 107.125 61.027344 C 107.128906 61.277344 107.132812 61.523438 107.136719 61.78125 C 107.144531 62.605469 107.148438 63.429688 107.152344 64.253906 C 107.15625 64.535156 107.15625 64.816406 107.160156 65.105469 C 107.167969 66.59375 107.175781 68.078125 107.179688 69.566406 C 107.183594 71.105469 107.199219 72.644531 107.21875 74.183594 C 107.230469 75.363281 107.234375 76.542969 107.238281 77.722656 C 107.238281 78.289062 107.246094 78.859375 107.253906 79.425781 C 107.265625 80.21875 107.261719 81.011719 107.261719 81.804688 C 107.265625 82.039062 107.273438 82.273438 107.277344 82.515625 C 107.261719 83.570312 107.25 84.113281 106.179688 84.882812 C 105.089844 85.273438 104.097656 85.492188 102.902344 85.683594 C 102.21875 85.796875 102.21875 85.796875 101.523438 85.910156 C 101.03125 85.988281 100.542969 86.0625 100.039062 86.144531 C 98.996094 86.3125 97.953125 86.484375 96.910156 86.65625 C 96.378906 86.742188 95.847656 86.828125 95.296875 86.914062 C 92.890625 87.3125 90.492188 87.742188 88.09375 88.167969 C 84.527344 88.800781 80.957031 89.425781 77.382812 90.03125 C 76.992188 90.097656 76.601562 90.164062 76.199219 90.234375 C 74.082031 90.59375 71.992188 90.875 69.832031 91.066406 C 69.984375 90.742188 70.132812 90.421875 70.289062 90.09375 C 71.539062 89.769531 71.539062 89.769531 73.210938 89.488281 C 73.511719 89.4375 73.8125 89.382812 74.121094 89.332031 C 75.101562 89.160156 76.085938 89 77.066406 88.835938 C 77.742188 88.722656 78.421875 88.605469 79.097656 88.492188 C 80.761719 88.207031 82.429688 87.929688 84.09375 87.648438 C 85.339844 87.441406 86.582031 87.230469 87.824219 87.015625 C 91.945312 86.3125 96.074219 85.640625 100.21875 85.019531 C 102.101562 84.730469 103.824219 84.367188 105.667969 83.933594 C 105.816406 75.808594 105.96875 67.679688 106.125 59.304688 C 102.257812 59.464844 102.257812 59.464844 98.316406 59.628906 C 98.316406 58.773438 98.316406 57.917969 98.316406 57.035156 Z M 98.316406 57.035156 "/>
<path style=" stroke:none;fill-rule:nonzero;fill:rgb(98.039216%,98.039216%,98.039216%);fill-opacity:1;" d="M 86.828125 49.582031 C 87.132812 49.796875 87.4375 50.011719 87.75 50.230469 C 87.503906 50.304688 87.261719 50.382812 87.007812 50.457031 C 84.90625 51.144531 83.519531 51.734375 82.234375 53.148438 C 81.773438 54.121094 81.636719 54.941406 81.519531 55.964844 C 81.480469 56.285156 81.441406 56.609375 81.402344 56.941406 C 81.375 57.1875 81.34375 57.433594 81.316406 57.683594 C 79.953125 57.683594 78.589844 57.683594 77.183594 57.683594 C 77.222656 56.855469 77.273438 56.023438 77.324219 55.195312 C 77.335938 54.960938 77.347656 54.726562 77.355469 54.484375 C 77.488281 52.625 78.199219 51.570312 79.910156 50.128906 C 82.085938 49.285156 84.390625 49.363281 86.828125 49.582031 Z M 86.828125 49.582031 "/>
<path style=" stroke:none;fill-rule:nonzero;fill:rgb(97.647059%,97.647059%,97.647059%);fill-opacity:1;" d="M 89.585938 51.527344 C 89.585938 53.453125 89.585938 55.378906 89.585938 57.359375 C 87.617188 57.359375 85.644531 57.359375 83.613281 57.359375 C 83.304688 54.148438 83.304688 54.148438 84.648438 52.984375 C 86.449219 51.832031 87.136719 51.527344 89.585938 51.527344 Z M 89.585938 51.527344 "/>
<path style=" stroke:none;fill-rule:nonzero;fill:rgb(17.254902%,17.254902%,17.254902%);fill-opacity:1;" d="M 103.828125 84.257812 C 104.285156 84.367188 104.738281 84.472656 105.207031 84.582031 C 105.207031 84.796875 105.207031 85.011719 105.207031 85.230469 C 104.769531 85.304688 104.769531 85.304688 104.328125 85.378906 C 98.910156 86.289062 93.496094 87.210938 88.09375 88.167969 C 84.527344 88.800781 80.957031 89.425781 77.382812 90.03125 C 76.992188 90.097656 76.601562 90.164062 76.199219 90.234375 C 74.082031 90.59375 71.992188 90.875 69.832031 91.066406 C 70.058594 90.582031 70.058594 90.582031 70.289062 90.09375 C 71.539062 89.769531 71.539062 89.769531 73.210938 89.488281 C 73.511719 89.4375 73.8125 89.382812 74.121094 89.332031 C 75.101562 89.160156 76.085938 89 77.066406 88.835938 C 77.742188 88.722656 78.421875 88.605469 79.097656 88.492188 C 80.761719 88.207031 82.429688 87.929688 84.09375 87.648438 C 85.339844 87.441406 86.582031 87.230469 87.824219 87.015625 C 92 86.304688 96.183594 85.625 100.378906 84.988281 C 102.152344 84.726562 102.152344 84.726562 103.828125 84.257812 Z M 103.828125 84.257812 "/>
<path style=" stroke:none;fill-rule:nonzero;fill:rgb(87.843138%,87.843138%,87.843138%);fill-opacity:1;" d="M 96.019531 57.683594 C 96.019531 58.21875 96.019531 58.753906 96.019531 59.304688 C 91.773438 59.519531 87.527344 59.734375 83.15625 59.953125 C 83.15625 59.417969 83.15625 58.882812 83.15625 58.332031 C 87.128906 57.398438 91.859375 57.632812 96.019531 57.683594 Z M 96.019531 57.683594 "/>
<path style=" stroke:none;fill-rule:nonzero;fill:rgb(94.901961%,94.901961%,94.901961%);fill-opacity:1;" d="M 91.882812 51.527344 C 95.03125 52.417969 95.03125 52.417969 96.019531 53.472656 C 96.171875 54.667969 96.125 55.839844 96.019531 57.035156 C 94.652344 57.035156 93.289062 57.035156 91.882812 57.035156 C 91.882812 55.21875 91.882812 53.402344 91.882812 51.527344 Z M 91.882812 51.527344 "/>
<path style=" stroke:none;fill-rule:nonzero;fill:rgb(94.509804%,94.509804%,94.509804%);fill-opacity:1;" d="M 76.953125 58.636719 C 77.332031 58.636719 77.707031 58.640625 78.097656 58.640625 C 79.015625 58.644531 79.9375 58.652344 80.859375 58.65625 C 80.859375 59.085938 80.859375 59.511719 80.859375 59.953125 C 79.625 60.070312 78.390625 60.1875 77.152344 60.296875 C 76.808594 60.332031 76.460938 60.367188 76.105469 60.398438 C 73.253906 60.652344 70.542969 60.707031 67.992188 59.628906 C 70.03125 58.191406 74.207031 58.617188 76.953125 58.636719 Z M 76.953125 58.636719 "/>
<path style=" stroke:none;fill-rule:nonzero;fill:rgb(0%,0%,0%);fill-opacity:1;" d="M 106.125 58.65625 C 106.429688 58.65625 106.730469 58.65625 107.042969 58.65625 C 107.066406 61.984375 107.082031 65.3125 107.09375 68.636719 C 107.097656 70.183594 107.101562 71.726562 107.113281 73.273438 C 107.125 74.761719 107.128906 76.25 107.132812 77.742188 C 107.132812 78.3125 107.136719 78.878906 107.140625 79.449219 C 107.148438 80.246094 107.148438 81.039062 107.148438 81.835938 C 107.152344 82.074219 107.15625 82.308594 107.160156 82.554688 C 107.148438 84.183594 107.148438 84.183594 106.125 84.90625 C 105.671875 84.800781 105.214844 84.695312 104.746094 84.582031 C 105.203125 84.261719 105.203125 84.261719 105.667969 83.933594 C 105.839844 83.183594 105.839844 83.183594 105.855469 82.292969 C 105.875 81.933594 105.890625 81.578125 105.910156 81.210938 C 105.925781 80.8125 105.9375 80.414062 105.953125 80.003906 C 105.972656 79.59375 105.988281 79.179688 106.007812 78.753906 C 106.261719 72.058594 106.164062 65.355469 106.125 58.65625 Z M 106.125 58.65625 "/>
<path style=" stroke:none;fill-rule:nonzero;fill:rgb(53.725493%,40.784314%,62.352943%);fill-opacity:1;" d="M 173.199219 89.769531 C 175.980469 89.707031 175.980469 89.707031 176.875 89.769531 C 177.792969 90.417969 177.792969 90.417969 177.917969 91.023438 C 177.914062 91.25 177.910156 91.480469 177.910156 91.714844 C 177.910156 91.941406 177.914062 92.167969 177.917969 92.402344 C 177.792969 93.007812 177.792969 93.007812 176.875 93.65625 C 175.640625 93.746094 174.445312 93.6875 173.199219 93.65625 C 173.199219 92.375 173.199219 91.089844 173.199219 89.769531 Z M 173.199219 89.769531 "/>
<path style=" stroke:none;fill-rule:nonzero;fill:rgb(49.411765%,35.294119%,58.823532%);fill-opacity:1;" d="M 162.632812 89.769531 C 165.675781 89.6875 165.675781 89.6875 167.226562 90.417969 C 167.429688 91.53125 167.429688 91.53125 167.226562 92.683594 C 166.480469 93.3125 166.480469 93.3125 165.390625 93.65625 C 164.480469 93.65625 163.570312 93.65625 162.632812 93.65625 C 162.632812 92.375 162.632812 91.089844 162.632812 89.769531 Z M 162.632812 89.769531 "/>
<path style=" stroke:none;fill-rule:nonzero;fill:rgb(46.666667%,31.764707%,56.470591%);fill-opacity:1;" d="M 190.199219 89.769531 C 192.171875 90.117188 192.378906 90.257812 193.414062 91.390625 C 193.613281 91.121094 193.8125 90.855469 194.019531 90.578125 C 194.273438 90.3125 194.53125 90.042969 194.792969 89.769531 C 195.25 89.769531 195.703125 89.769531 196.171875 89.769531 C 196.171875 90.945312 196.171875 92.121094 196.171875 93.332031 C 195.867188 93.332031 195.566406 93.332031 195.253906 93.332031 C 195.253906 92.796875 195.253906 92.265625 195.253906 91.714844 C 194.949219 91.714844 194.644531 91.714844 194.332031 91.714844 C 194.183594 92.035156 194.03125 92.355469 193.875 92.683594 C 193.269531 92.578125 192.660156 92.472656 192.035156 92.359375 C 191.886719 92.789062 191.734375 93.214844 191.578125 93.65625 C 191.121094 93.65625 190.667969 93.65625 190.199219 93.65625 C 190.199219 92.375 190.199219 91.089844 190.199219 89.769531 Z M 190.199219 89.769531 "/>
<path style=" stroke:none;fill-rule:nonzero;fill:rgb(52.941179%,39.607844%,61.56863%);fill-opacity:1;" d="M 156.203125 89.769531 C 157.566406 89.769531 158.929688 89.769531 160.335938 89.769531 C 160.183594 90.515625 160.035156 91.265625 159.878906 92.035156 C 159.121094 92.035156 158.363281 92.035156 157.582031 92.035156 C 157.582031 92.25 157.582031 92.464844 157.582031 92.683594 C 158.488281 92.683594 159.398438 92.683594 160.335938 92.683594 C 160.335938 93.007812 160.335938 93.328125 160.335938 93.65625 C 158.972656 93.65625 157.609375 93.65625 156.203125 93.65625 C 156.203125 92.375 156.203125 91.089844 156.203125 89.769531 Z M 156.203125 89.769531 "/>
<path style=" stroke:none;fill-rule:nonzero;fill:rgb(54.11765%,41.176471%,62.7451%);fill-opacity:1;" d="M 200.304688 89.769531 C 200.914062 89.769531 201.519531 89.769531 202.144531 89.769531 C 202.453125 90.292969 202.757812 90.820312 203.0625 91.347656 C 203.320312 91.789062 203.320312 91.789062 203.578125 92.238281 C 203.980469 93.007812 203.980469 93.007812 203.980469 93.65625 C 203.527344 93.65625 203.070312 93.65625 202.601562 93.65625 C 202.601562 93.445312 202.601562 93.230469 202.601562 93.007812 C 201.695312 93.007812 200.785156 93.007812 199.847656 93.007812 C 199.847656 93.222656 199.847656 93.4375 199.847656 93.65625 C 199.390625 93.65625 198.9375 93.65625 198.46875 93.65625 C 198.773438 92.234375 199.472656 91.070312 200.304688 89.769531 Z M 200.304688 89.769531 "/>
<path style=" stroke:none;fill-rule:nonzero;fill:rgb(47.058824%,32.156864%,56.862748%);fill-opacity:1;" d="M 206.277344 89.769531 C 208.117188 90.09375 208.117188 90.09375 209.035156 91.066406 C 209.1875 90.636719 209.339844 90.210938 209.496094 89.769531 C 209.949219 89.769531 210.402344 89.769531 210.871094 89.769531 C 210.871094 91.050781 210.871094 92.335938 210.871094 93.65625 C 209.035156 93.332031 209.035156 93.332031 208.230469 92.503906 C 208.042969 92.242188 207.851562 91.980469 207.65625 91.714844 C 207.503906 92.355469 207.355469 92.996094 207.199219 93.65625 C 206.894531 93.65625 206.589844 93.65625 206.277344 93.65625 C 206.277344 92.375 206.277344 91.089844 206.277344 89.769531 Z M 206.277344 89.769531 "/>
<path style=" stroke:none;fill-rule:nonzero;fill:rgb(52.549022%,39.215687%,61.176473%);fill-opacity:1;" d="M 145.152344 89.707031 C 146.078125 89.726562 147.003906 89.746094 147.933594 89.769531 C 147.933594 90.089844 147.933594 90.410156 147.933594 90.742188 C 147.175781 90.847656 146.417969 90.953125 145.636719 91.066406 C 146.394531 91.386719 147.152344 91.707031 147.933594 92.035156 C 147.53125 93.292969 147.53125 93.292969 147.015625 93.65625 C 145.785156 93.703125 144.566406 93.671875 143.339844 93.65625 C 143.339844 93.335938 143.339844 93.015625 143.339844 92.683594 C 144.25 92.578125 145.15625 92.472656 146.09375 92.359375 C 145.726562 92.28125 145.355469 92.199219 144.976562 92.117188 C 143.796875 91.714844 143.796875 91.714844 143.367188 91.066406 C 143.359375 90.851562 143.347656 90.636719 143.339844 90.417969 C 144.257812 89.769531 144.257812 89.769531 145.152344 89.707031 Z M 145.152344 89.707031 "/>
<path style=" stroke:none;fill-rule:nonzero;fill:rgb(49.803922%,35.686275%,59.215689%);fill-opacity:1;" d="M 136.445312 89.769531 C 136.902344 89.769531 137.355469 89.769531 137.824219 89.769531 C 137.976562 90.625 138.128906 91.480469 138.285156 92.359375 C 138.738281 92.359375 139.195312 92.359375 139.664062 92.359375 C 139.816406 91.503906 139.964844 90.648438 140.121094 89.769531 C 140.578125 89.769531 141.03125 89.769531 141.5 89.769531 C 141.539062 90.234375 141.566406 90.699219 141.585938 91.167969 C 141.601562 91.425781 141.617188 91.683594 141.636719 91.953125 C 141.5 92.683594 141.5 92.683594 140.878906 93.257812 C 140.121094 93.65625 140.121094 93.65625 138.972656 93.777344 C 137.601562 93.632812 137.28125 93.453125 136.445312 92.683594 C 136.3125 91.953125 136.3125 91.953125 136.359375 91.167969 C 136.375 90.902344 136.386719 90.640625 136.398438 90.371094 C 136.414062 90.171875 136.429688 89.972656 136.445312 89.769531 Z M 136.445312 89.769531 "/>
<path style=" stroke:none;fill-rule:nonzero;fill:rgb(47.450981%,32.549021%,57.254905%);fill-opacity:1;" d="M 130.015625 89.769531 C 131.566406 89.726562 131.566406 89.726562 133.230469 89.769531 C 133.535156 89.980469 133.835938 90.195312 134.148438 90.417969 C 134.074219 90.722656 134 91.03125 133.921875 91.347656 C 133.675781 92.429688 133.78125 92.765625 134.609375 93.65625 C 133.519531 93.597656 133.519531 93.597656 132.3125 93.332031 C 131.710938 92.503906 131.710938 92.503906 131.394531 91.714844 C 131.847656 91.714844 132.304688 91.714844 132.773438 91.714844 C 132.773438 91.285156 132.773438 90.855469 132.773438 90.417969 C 132.164062 90.417969 131.558594 90.417969 130.933594 90.417969 C 130.933594 91.378906 130.933594 92.339844 130.933594 93.332031 C 130.632812 93.332031 130.328125 93.332031 130.015625 93.332031 C 130.015625 92.15625 130.015625 90.980469 130.015625 89.769531 Z M 130.015625 89.769531 "/>
<path style=" stroke:none;fill-rule:nonzero;fill:rgb(50.196081%,36.470589%,59.607846%);fill-opacity:1;" d="M 213.171875 89.769531 C 213.625 89.769531 214.078125 89.769531 214.546875 89.769531 C 214.546875 90.195312 214.546875 90.625 214.546875 91.066406 C 215.15625 91.066406 215.761719 91.066406 216.386719 91.066406 C 216.386719 90.636719 216.386719 90.210938 216.386719 89.769531 C 216.839844 89.769531 217.296875 89.769531 217.765625 89.769531 C 217.820312 90.539062 217.820312 90.539062 217.765625 91.390625 C 217.460938 91.601562 217.15625 91.816406 216.84375 92.035156 C 216.546875 92.871094 216.546875 92.871094 216.386719 93.65625 C 215.929688 93.65625 215.476562 93.65625 215.007812 93.65625 C 215.007812 93.121094 215.007812 92.589844 215.007812 92.035156 C 214.402344 91.824219 213.792969 91.609375 213.171875 91.390625 C 213.171875 90.855469 213.171875 90.320312 213.171875 89.769531 Z M 213.171875 89.769531 "/>
<path style=" stroke:none;fill-rule:nonzero;fill:rgb(49.411765%,34.901962%,58.823532%);fill-opacity:1;" d="M 179.632812 89.769531 C 180.085938 89.769531 180.542969 89.769531 181.011719 89.769531 C 181.164062 90.195312 181.3125 90.625 181.46875 91.066406 C 181.925781 91.066406 182.378906 91.066406 182.847656 91.066406 C 183 90.636719 183.152344 90.210938 183.308594 89.769531 C 183.761719 89.769531 184.21875 89.769531 184.6875 89.769531 C 184.535156 90.410156 184.382812 91.050781 184.226562 91.714844 C 183.773438 91.820312 183.316406 91.925781 182.847656 92.035156 C 182.847656 92.570312 182.847656 93.105469 182.847656 93.65625 C 182.394531 93.65625 181.9375 93.65625 181.46875 93.65625 C 181.46875 93.121094 181.46875 92.589844 181.46875 92.035156 C 181.015625 91.929688 180.558594 91.824219 180.09375 91.714844 C 179.941406 91.070312 179.789062 90.429688 179.632812 89.769531 Z M 179.632812 89.769531 "/>
<path style=" stroke:none;fill-rule:nonzero;fill:rgb(15.686275%,15.686275%,15.686275%);fill-opacity:1;" d="M 82.234375 88.472656 C 81.777344 89.121094 81.777344 89.121094 80.777344 89.378906 C 80.34375 89.457031 79.914062 89.539062 79.46875 89.621094 C 79 89.707031 78.53125 89.792969 78.046875 89.882812 C 77.304688 90.015625 77.304688 90.015625 76.550781 90.152344 C 75.816406 90.292969 75.816406 90.292969 75.066406 90.433594 C 74.59375 90.519531 74.125 90.605469 73.640625 90.695312 C 73.207031 90.773438 72.773438 90.851562 72.328125 90.933594 C 71.210938 91.066406 71.210938 91.066406 69.832031 90.742188 C 70.289062 90.09375 70.289062 90.09375 71.144531 89.871094 C 71.507812 89.804688 71.871094 89.742188 72.25 89.675781 C 72.648438 89.605469 73.050781 89.53125 73.464844 89.460938 C 73.886719 89.386719 74.308594 89.316406 74.742188 89.242188 C 75.15625 89.167969 75.566406 89.09375 75.992188 89.015625 C 78.117188 88.648438 80.03125 88.375 82.234375 88.472656 Z M 82.234375 88.472656 "/>
<path style=" stroke:none;fill-rule:nonzero;fill:rgb(50.588238%,36.470589%,59.607846%);fill-opacity:1;" d="M 149.769531 89.769531 C 151.285156 89.769531 152.800781 89.769531 154.363281 89.769531 C 154.363281 89.980469 154.363281 90.195312 154.363281 90.417969 C 153.757812 90.417969 153.152344 90.417969 152.527344 90.417969 C 152.527344 91.484375 152.527344 92.554688 152.527344 93.65625 C 152.070312 93.65625 151.617188 93.65625 151.148438 93.65625 C 151.148438 92.695312 151.148438 91.730469 151.148438 90.742188 C 150.695312 90.742188 150.238281 90.742188 149.769531 90.742188 C 149.769531 90.417969 149.769531 90.097656 149.769531 89.769531 Z M 149.769531 89.769531 "/>
<path style=" stroke:none;fill-rule:nonzero;fill:rgb(3.921569%,3.921569%,3.921569%);fill-opacity:1;" d="M 106.125 74.214844 C 106.277344 74.214844 106.429688 74.214844 106.585938 74.214844 C 107.285156 82.664062 107.285156 82.664062 107.042969 84.257812 C 106.742188 84.472656 106.4375 84.6875 106.125 84.90625 C 105.671875 84.800781 105.214844 84.695312 104.746094 84.582031 C 105.050781 84.371094 105.355469 84.15625 105.667969 83.933594 C 105.835938 82.929688 105.835938 82.929688 105.855469 81.746094 C 105.867188 81.53125 105.875 81.316406 105.882812 81.09375 C 105.910156 80.40625 105.933594 79.71875 105.953125 79.035156 C 105.972656 78.566406 105.988281 78.101562 106.007812 77.636719 C 106.050781 76.496094 106.089844 75.355469 106.125 74.214844 Z M 106.125 74.214844 "/>
<path style=" stroke:none;fill-rule:nonzero;fill:rgb(48.235294%,33.725491%,57.647061%);fill-opacity:1;" d="M 123.125 89.769531 C 124.488281 89.769531 125.851562 89.769531 127.257812 89.769531 C 127.257812 89.980469 127.257812 90.195312 127.257812 90.417969 C 126.804688 90.417969 126.347656 90.417969 125.878906 90.417969 C 125.878906 91.484375 125.878906 92.554688 125.878906 93.65625 C 125.425781 93.65625 124.972656 93.65625 124.503906 93.65625 C 124.503906 92.589844 124.503906 91.519531 124.503906 90.417969 C 124.046875 90.417969 123.59375 90.417969 123.125 90.417969 C 123.125 90.203125 123.125 89.988281 123.125 89.769531 Z M 123.125 89.769531 "/>
<path style=" stroke:none;fill-rule:nonzero;fill:rgb(16.470589%,16.470589%,16.470589%);fill-opacity:1;" d="M 96.019531 59.628906 C 96.019531 60.164062 96.019531 60.699219 96.019531 61.25 C 95.867188 60.820312 95.714844 60.394531 95.558594 59.953125 C 94.679688 60.035156 94.679688 60.035156 93.777344 60.117188 C 87.386719 60.605469 87.386719 60.605469 84.992188 59.628906 C 88.738281 59.285156 92.265625 59.355469 96.019531 59.628906 Z M 96.019531 59.628906 "/>
<path style=" stroke:none;fill-rule:nonzero;fill:rgb(74.901962%,67.843139%,79.607844%);fill-opacity:1;" d="M 129.554688 89.769531 C 129.707031 89.769531 129.859375 89.769531 130.015625 89.769531 C 130.015625 90.945312 130.015625 92.121094 130.015625 93.332031 C 130.320312 93.332031 130.621094 93.332031 130.933594 93.332031 C 130.933594 92.371094 130.933594 91.410156 130.933594 90.417969 C 131.539062 90.417969 132.148438 90.417969 132.773438 90.417969 C 132.773438 90.84375 132.773438 91.273438 132.773438 91.714844 C 132.316406 91.714844 131.863281 91.714844 131.394531 91.714844 C 131.394531 92.355469 131.394531 92.996094 131.394531 93.65625 C 130.789062 93.65625 130.179688 93.65625 129.554688 93.65625 C 129.554688 92.375 129.554688 91.089844 129.554688 89.769531 Z M 129.554688 89.769531 "/>
<path style=" stroke:none;fill-rule:nonzero;fill:rgb(24.313726%,24.313726%,24.313726%);fill-opacity:1;" d="M 88.207031 87.824219 C 86.808594 88.375 85.53125 88.632812 83.957031 88.835938 C 83.34375 88.917969 83.34375 88.917969 82.714844 89 C 82.25 89.058594 82.25 89.058594 81.777344 89.121094 C 81.625 88.800781 81.472656 88.480469 81.316406 88.148438 C 83.878906 87.609375 85.59375 87.441406 88.207031 87.824219 Z M 88.207031 87.824219 "/>
<path style=" stroke:none;fill-rule:nonzero;fill:rgb(12.156863%,12.156863%,12.156863%);fill-opacity:1;" d="M 94.179688 86.527344 C 94.027344 86.742188 93.878906 86.957031 93.722656 87.175781 C 91.335938 87.699219 89.316406 87.898438 86.828125 87.824219 C 88.699219 86.507812 91.652344 86.4375 94.179688 86.527344 Z M 94.179688 86.527344 "/>
<path style=" stroke:none;fill-rule:nonzero;fill:rgb(24.313726%,24.313726%,24.313726%);fill-opacity:1;" d="M 99.695312 85.878906 C 97.921875 86.660156 96.230469 86.761719 94.179688 86.851562 C 93.726562 86.636719 93.269531 86.425781 92.800781 86.203125 C 95.363281 85.664062 97.078125 85.496094 99.695312 85.878906 Z M 99.695312 85.878906 "/>
<path style=" stroke:none;fill-rule:nonzero;fill:rgb(49.411765%,34.901962%,58.823532%);fill-opacity:1;" d="M 200.304688 89.769531 C 200.914062 89.769531 201.519531 89.769531 202.144531 89.769531 C 202.296875 90.195312 202.445312 90.625 202.601562 91.066406 C 201.996094 91.066406 201.390625 91.066406 200.765625 91.066406 C 200.765625 91.277344 200.765625 91.492188 200.765625 91.714844 C 200.3125 91.820312 199.855469 91.925781 199.386719 92.035156 C 199.789062 90.496094 199.789062 90.496094 200.304688 89.769531 Z M 200.304688 89.769531 "/>
<path style=" stroke:none;fill-rule:nonzero;fill:rgb(97.254902%,96.470588%,97.647059%);fill-opacity:1;" d="M 164.011719 90.742188 C 164.617188 90.742188 165.226562 90.742188 165.851562 90.742188 C 165.851562 91.277344 165.851562 91.808594 165.851562 92.359375 C 165.242188 92.46875 164.636719 92.574219 164.011719 92.683594 C 164.011719 92.042969 164.011719 91.402344 164.011719 90.742188 Z M 164.011719 90.742188 "/>
<path style=" stroke:none;fill-rule:nonzero;fill:rgb(8.235294%,8.235294%,8.235294%);fill-opacity:1;" d="M 82.234375 88.472656 C 82.085938 88.6875 81.933594 88.898438 81.777344 89.121094 C 80.625 89.324219 80.625 89.324219 79.222656 89.484375 C 78.523438 89.566406 78.523438 89.566406 77.8125 89.648438 C 77.273438 89.707031 77.273438 89.707031 76.722656 89.769531 C 78.398438 88.476562 79.816406 88.433594 82.234375 88.472656 Z M 82.234375 88.472656 "/>
</g>
</svg>
